# xmcd
#
# Track frame offsets: 
#        150
#        18749
#        41393
#        59978
#        81697
#        101058
#        125884
#        145236
#        173683
#        194803
#        217125
#        247696
#
# Disc length: 3542 seconds
#
# Revision: 4
# Processed by: cddbd v1.5.2PL0 Copyright (c) Steve Scherf et al.
# Submitted via: ExactAudioCopy v0.95b3
#
DISCID=c10dd40c
DTITLE=Sheryl Crow - The Globe Sessions
DYEAR=1900
DGENRE=
TTITLE0=My favorite mistake
TTITLE1=There goes the neighbourhood
TTITLE2=Riverwide
TTITLE3=It don't hurt
TTITLE4=Maybe that's something
TTITLE5=Am I getting through (Part I and II)
TTITLE6=Anything but down
TTITLE7=The different kind
TTITLE8=Mississppi
TTITLE9=Members only
TTITLE10=Crash and burn
TTITLE11=Resuscitation
EXTD=
EXTT0=
EXTT1=
EXTT2=
EXTT3=
EXTT4=
EXTT5=
EXTT6=
EXTT7=
EXTT8=
EXTT9=
EXTT10=
EXTT11=
PLAYORDER=
